# This file uses centimeters as units for non-parametric coordinates.

mtllib smallRock.mtl
g default
v -0.937392 0.001026 0.937392
v 0.000000 0.001026 1.394302
v 1.040586 0.001026 1.238139
v -0.855945 0.348044 0.875347
v 0.007960 0.348044 1.296438
v 0.976054 0.348044 1.159179
v -0.855945 0.348044 -0.852462
v 0.007960 0.348044 -1.166765
v 0.871865 0.348044 -0.969432
v -0.937392 0.001026 -0.937392
v 0.000000 0.001026 -1.264628
v 0.937392 0.001026 -1.064311
v -1.131084 0.001026 0.000000
v 0.000000 0.001026 0.000000
v 1.280074 0.001026 0.000000
v 1.187683 0.348044 0.011442
v -1.038692 0.348044 0.011442
v 0.263186 0.695062 -0.719554
v -1.048646 0.348044 -0.388580
v -1.135970 0.001026 -0.434050
v 0.000000 0.001026 -0.726771
v 1.160027 0.001026 -0.554625
v 1.080075 0.348044 -0.504548
v -0.010098 0.695062 0.581239
v -1.015323 0.348044 0.427713
v -1.102441 0.001026 0.451681
v 0.069532 0.001026 0.764552
v 1.286531 0.001026 0.609726
v 1.207563 0.348044 0.577609
v -0.442385 0.695062 -0.224276
v -0.234280 0.695062 -0.611012
v -0.436141 0.348044 -1.096322
v -0.481878 0.001026 -1.187536
v -0.540272 0.001026 -0.471175
v -0.581448 0.001026 0.000000
v -0.546866 0.001026 0.558665
v -0.505055 0.001026 1.205776
v -0.459318 0.348044 1.126326
v -0.483907 0.695062 0.275744
v 0.781029 0.695062 0.046199
v 0.752931 0.695062 -0.377499
v 0.437229 0.348044 -1.064345
v 0.465784 0.001026 -1.160725
v 0.576411 0.001026 -0.532400
v 0.782851 0.001026 0.000000
v 0.728284 0.001026 0.683733
v 0.575364 0.001026 1.413542
v 0.547303 0.348044 1.325071
v 0.546680 0.695062 0.546154
v 0.121221 1.500734 -0.122218
v -0.383944 1.078423 0.200235
v -0.376699 1.089765 -0.209336
v -0.191090 1.099312 -0.554074
v 0.252600 1.101991 -0.650830
v 0.689404 1.093547 -0.345920
v 0.714465 1.083088 0.031767
v 0.505449 1.070746 0.477429
v 0.038646 1.070881 0.472555
v -0.795994 0.619586 0.829678
v -0.715347 0.695062 0.765506
v -0.425750 0.618806 1.068013
v -0.381437 0.695062 0.980685
v 0.013818 0.619528 1.224419
v 0.031686 0.695062 1.127084
v 0.526721 0.618641 1.260178
v 0.508602 0.695062 1.161703
v -0.718234 0.695062 -0.719421
v -0.795591 0.621416 -0.789528
v -0.365656 0.695062 -0.936211
v -0.402439 0.619881 -1.029109
v 0.011684 0.695062 -0.995211
v 0.013815 0.619383 -1.094784
v 0.391866 0.695062 -0.898102
v 0.415224 0.619983 -0.993526
v -0.951435 0.618585 0.410137
v -0.855277 0.695062 0.389094
v 0.928621 0.619206 1.101141
v 0.855542 0.695062 1.024705
v 1.149857 0.617626 0.554139
v 1.053385 0.695062 0.534365
v -0.878210 0.695062 -0.013394
v -0.971630 0.615813 0.019748
v -0.984503 0.619025 -0.355181
v -0.887934 0.695062 -0.330969
v 1.119809 0.619057 0.019848
v 1.022875 0.695062 0.032357
v 1.021379 0.618874 -0.467785
v 0.929333 0.695062 -0.432878
v 0.755822 0.695062 -0.813523
v 0.823479 0.620447 -0.899373
v 0.529199 1.492764 -0.006021
v 0.628576 1.416158 0.013183
v 0.510349 1.510113 -0.251891
v 0.607354 1.435932 -0.305216
v 0.218478 1.524416 -0.455735
v 0.238919 1.451869 -0.562188
v 0.391095 1.471889 0.290977
v 0.452380 1.392422 0.389155
v 0.085648 1.471959 0.289515
v 0.058427 1.393146 0.384914
v -0.069829 1.520132 -0.394196
v -0.135220 1.447186 -0.480572
v -0.194645 1.503977 -0.165402
v -0.291905 1.428717 -0.190090
v -0.201261 1.485063 0.103882
v -0.298109 1.407284 0.155251
vt 0.375000 0.000000
vt 0.500000 0.000000
vt 0.625000 0.000000
vt 0.625000 0.625000
vt 0.375000 0.750000
vt 0.500000 0.750000
vt 0.625000 0.750000
vt 0.375000 0.875000
vt 0.500000 0.875000
vt 0.625000 0.875000
vt 0.375000 1.000000
vt 0.500000 1.000000
vt 0.625000 1.000000
vt 0.875000 0.000000
vt 0.750000 0.000000
vt 0.125000 0.000000
vt 0.250000 0.000000
vt 0.125000 0.125000
vt 0.192120 0.000000
vt 0.375000 0.817120
vt 0.500000 0.817120
vt 0.625000 0.817120
vt 0.807880 0.000000
vt 0.310231 0.000000
vt 0.375000 0.935231
vt 0.500000 0.935231
vt 0.625000 0.935231
vt 0.689769 0.000000
vt 0.435742 0.750000
vt 0.435742 0.817120
vt 0.435742 0.875000
vt 0.435742 0.935231
vt 0.435742 0.000000
vt 0.435742 1.000000
vt 0.562112 0.750000
vt 0.562112 0.817120
vt 0.562112 0.875000
vt 0.562112 0.935231
vt 0.562112 0.000000
vt 0.562112 1.000000
vt 0.375000 0.314769
vt 0.375000 0.500000
vt 0.375000 0.435748
vt 0.375000 0.526528
vt 0.383325 0.485924
vt 0.608156 0.489676
vt 0.625000 0.500000
vt 0.375000 0.314804
vt 0.375000 0.375000
vt 0.629149 0.250000
vt 0.687779 0.250000
vt 0.692277 0.250000
vt 0.749401 0.250000
vt 0.375000 0.376793
vt 0.375000 0.432880
vt 0.750619 0.250000
vt 0.806338 0.250000
vt 0.809220 0.250000
vt 0.875000 0.223123
vt 0.869092 0.250000
vt 0.552431 0.324383
vt 0.448387 0.325207
vt 0.435742 0.125000
vt 0.375000 0.222813
vt 0.562112 0.125000
vt 0.500000 0.222792
vt 0.387140 0.258212
vt 0.441639 0.258260
vt 0.435742 0.314769
vt 0.560240 0.257357
vt 0.500000 0.314769
vt 0.383773 0.375000
vt 0.551558 0.420278
vt 0.500923 0.421462
vt 0.435742 0.527081
vt 0.375000 0.625000
vt 0.561962 0.527044
vt 0.500000 0.625000
vt 0.807880 0.125000
vt 0.750000 0.222622
vt 0.689769 0.125000
vt 0.625000 0.222676
vt 0.250000 0.125000
vt 0.192120 0.222611
vt 0.375000 0.125000
vt 0.310231 0.222452
vt 0.383918 0.424831
vt 0.435742 0.432880
vt 0.192120 0.125000
vt 0.125000 0.223472
vt 0.807880 0.222556
vt 0.875000 0.125000
vt 0.493361 0.487095
vt 0.385262 0.313858
vt 0.435742 0.375000
vt 0.310231 0.125000
vt 0.250000 0.221454
vt 0.689769 0.222107
vt 0.750000 0.125000
vt 0.552286 0.374035
vt 0.448498 0.373594
vt 0.449454 0.420951
vt 0.435479 0.487689
vt 0.500000 0.432880
vt 0.435742 0.625000
vt 0.500000 0.527261
vt 0.435742 0.222532
vt 0.500000 0.125000
vt 0.502159 0.257907
vt 0.502251 0.324110
vt 0.500000 0.375000
vt 0.562112 0.375000
vt 0.606117 0.432812
vt 0.548993 0.483357
vt 0.562112 0.432880
vt 0.562112 0.625000
vt 0.625000 0.526877
vt 0.562112 0.222472
vt 0.625000 0.125000
vt 0.614961 0.257937
vt 0.615789 0.316317
vt 0.562112 0.314769
vt 0.609627 0.374508
vt 0.435742 0.314769
vt 0.435742 0.375000
vt 0.435742 0.375000
vt 0.435742 0.432880
vt 0.435742 0.432880
vt 0.500000 0.432880
vt 0.500000 0.432880
vt 0.562112 0.432880
vt 0.562112 0.432880
vt 0.562112 0.375000
vt 0.562112 0.375000
vt 0.562112 0.314769
vt 0.562112 0.314769
vt 0.500000 0.314769
vt 0.500000 0.314769
vt 0.435742 0.314769
vn -0.512564 0.260718 0.818110
vn -0.424011 0.260365 0.867424
vn -0.423573 0.254558 0.869359
vn -0.515920 0.255190 0.817744
vn -0.181607 0.260648 0.948199
vn 0.144037 0.265606 0.953261
vn 0.135934 0.259719 0.956069
vn -0.187325 0.254398 0.948784
vn -0.477678 0.290830 -0.829000
vn -0.325911 0.282529 -0.902197
vn -0.325161 0.288914 -0.900444
vn -0.469314 0.297052 -0.831568
vn 0.034706 0.268501 -0.962654
vn 0.212698 0.270891 -0.938817
vn 0.206991 0.277361 -0.938204
vn 0.027356 0.274608 -0.961167
vn 0.000000 -1.000000 -0.000000
vn 0.000000 -1.000000 -0.000000
vn 0.000000 -1.000000 -0.000000
vn 0.000000 -1.000000 -0.000000
vn 0.000000 -1.000000 -0.000000
vn 0.000000 -1.000000 0.000000
vn 0.000000 -1.000000 0.000000
vn 0.000000 -1.000000 0.000000
vn 0.000000 -1.000000 0.000000
vn 0.000000 -1.000000 0.000000
vn 0.000000 -1.000000 0.000000
vn 0.000000 -1.000000 0.000000
vn 0.000000 -1.000000 0.000000
vn 0.000000 -1.000000 0.000000
vn 0.000000 -1.000000 0.000000
vn 0.000000 -1.000000 0.000000
vn 0.962929 0.246732 -0.109042
vn 0.917600 0.261020 -0.299797
vn 0.920599 0.254921 -0.295826
vn 0.964071 0.240687 -0.112412
vn 0.902198 0.243516 0.356003
vn 0.951243 0.246005 0.186060
vn 0.954498 0.240545 0.176271
vn 0.902635 0.238465 0.358307
vn -0.939185 0.274425 -0.206454
vn -0.967473 0.250186 0.037460
vn -0.968937 0.244154 0.039374
vn -0.942964 0.267782 -0.197768
vn -0.945259 0.258502 0.199152
vn -0.911886 0.260757 0.316969
vn -0.911585 0.255206 0.322310
vn -0.946709 0.252794 0.199594
vn -0.888924 0.283725 -0.359604
vn -0.888095 0.278212 -0.365905
vn 0.000000 -1.000000 -0.000000
vn 0.000000 -1.000000 -0.000000
vn 0.000000 -1.000000 -0.000000
vn 0.000000 -1.000000 -0.000000
vn 0.881608 0.266199 -0.389749
vn 0.881637 0.261037 -0.393162
vn 0.202848 0.279532 -0.938464
vn 0.197983 0.285267 -0.937777
vn 0.000000 -1.000000 0.000000
vn 0.000000 -1.000000 0.000000
vn 0.000000 -1.000000 0.000000
vn 0.000000 -1.000000 0.000000
vn 0.000000 -1.000000 0.000000
vn 0.344077 0.263325 0.901261
vn 0.347477 0.257672 0.901590
vn 0.984403 0.164200 -0.063157
vn 0.984403 0.164200 -0.063157
vn 0.978647 0.196792 -0.059361
vn 0.954390 0.208069 0.214120
vn 0.566699 0.152971 -0.809600
vn 0.566699 0.152971 -0.809600
vn 0.565164 0.182971 -0.804433
vn 0.565223 0.181976 -0.804616
vn 0.028746 0.229389 0.972910
vn 0.028746 0.229389 0.972910
vn 0.014093 0.242210 0.970122
vn 0.013496 0.242730 0.970000
vn 0.891139 0.171520 0.420062
vn 0.891139 0.171520 0.420062
vn 0.884461 0.202693 0.420290
vn -0.210877 0.157916 -0.964673
vn -0.210877 0.157916 -0.964673
vn -0.210361 0.188305 -0.959317
vn -0.210347 0.188953 -0.959193
vn -0.870007 0.160499 -0.466185
vn -0.870007 0.160499 -0.466185
vn -0.945190 0.212623 -0.247804
vn -0.866351 0.192154 -0.460991
vn -0.977646 0.204257 -0.049869
vn -0.977646 0.204257 -0.049869
vn -0.974923 0.219894 -0.034238
vn -0.515739 0.296080 0.803959
vn -0.515739 0.296080 0.803959
vn -0.517328 0.278082 0.809347
vn -0.517298 0.278437 0.809244
vn -0.464084 0.804729 0.370186
vn -0.463449 0.804730 0.370979
vn -0.604393 0.786766 0.125328
vn -0.604157 0.786820 0.126129
vn -0.267751 0.790971 0.550158
vn -0.266940 0.790967 0.550558
vn -0.120061 0.791814 0.598845
vn -0.122100 0.791816 0.598431
vn 0.080220 0.796871 0.598800
vn 0.076243 0.796816 0.599392
vn 0.439953 0.810140 0.387447
vn 0.443274 0.809924 0.384098
vn -0.443600 0.811896 -0.379531
vn -0.441067 0.811942 -0.382373
vn -0.592975 0.794610 -0.130294
vn -0.595121 0.794136 -0.123207
vn -0.208225 0.801705 -0.560278
vn -0.210851 0.801795 -0.559166
vn 0.029552 0.797621 -0.602435
vn 0.026433 0.797622 -0.602578
vn 0.142895 0.793972 -0.590923
vn 0.142885 0.793975 -0.590921
vn 0.135933 0.796349 -0.589365
vn 0.135933 0.796349 -0.589365
vn -0.630621 0.775601 0.027585
vn -0.630190 0.775913 0.028653
vn 0.603527 0.790105 0.107188
vn 0.604444 0.790106 0.101886
vn 0.613778 0.785690 -0.077252
vn 0.613772 0.785692 -0.077283
vn 0.581900 0.791559 -0.186621
vn 0.583046 0.791458 -0.183445
vn 0.556289 0.791589 -0.252842
vn 0.556289 0.791589 -0.252842
vn 0.577968 0.797303 0.173959
vn 0.575852 0.796940 0.182432
vn 0.609948 0.792392 0.008814
vn 0.609948 0.792392 0.008814
vn 0.540039 0.784728 0.304235
vn 0.540039 0.784728 0.304235
vn 0.364796 0.803772 -0.469973
vn 0.364796 0.803772 -0.469973
vn 0.141504 0.832163 -0.536173
vn 0.141359 0.832167 -0.536206
vn -0.135476 0.805834 -0.576436
vn -0.135476 0.805834 -0.576436
vn -0.004287 0.773781 0.633439
vn -0.004287 0.773780 0.633439
vn -0.173895 0.782744 0.597556
vn -0.169417 0.782811 0.598753
vn -0.322236 0.770631 0.549811
vn -0.322236 0.770631 0.549811
vn -0.554655 0.794352 -0.247715
vn -0.554655 0.794352 -0.247715
vn -0.592872 0.799248 -0.098517
vn -0.591063 0.799480 -0.107128
vn -0.615369 0.787281 0.038847
vn -0.615369 0.787281 0.038847
vn -0.423719 0.246249 0.871679
vn -0.521115 0.246538 0.817104
vn 0.127936 0.251092 0.959471
vn -0.192395 0.245426 0.950132
vn 0.000000 1.000000 0.000000
vn 0.000000 1.000000 -0.000000
vn 0.000000 1.000000 0.000000
vn 0.000000 1.000000 0.000000
vn 0.000000 1.000000 -0.000000
vn 0.000000 1.000000 -0.000000
vn 0.000000 1.000000 -0.000000
vn 0.000000 1.000000 -0.000000
vn 0.000000 1.000000 0.000000
vn 0.000000 1.000000 0.000000
vn 0.000000 1.000000 0.000000
vn 0.000000 1.000000 0.000000
vn 0.000021 0.997530 0.070248
vn -0.000377 0.997538 0.070128
vn -0.000525 0.997507 0.070570
vn -0.000138 0.997499 0.070679
vn -0.490065 0.281478 -0.824989
vn -0.331103 0.273539 -0.903077
vn 0.042374 0.259490 -0.964816
vn 0.220408 0.262079 -0.939540
vn 0.923679 0.246430 -0.293409
vn 0.965550 0.232165 -0.117528
vn 0.958167 0.232589 0.166788
vn 0.903288 0.230203 0.362046
vn -0.970958 0.235695 0.041089
vn -0.946125 0.258921 -0.194443
vn -0.911018 0.246676 0.330451
vn -0.948344 0.244589 0.202042
vn 0.000000 1.000000 0.000000
vn 0.000000 1.000000 -0.000000
vn -0.886632 0.269315 -0.375970
vn 0.881608 0.252229 -0.398934
vn 0.000000 1.000000 0.000000
vn 0.000000 1.000000 0.000000
vn 0.000000 1.000000 0.000000
vn 0.000000 1.000000 0.000000
vn 0.000019 0.997558 0.069843
vn -0.000273 0.997560 0.069817
vn 0.000488 0.997528 0.070267
vn 0.000434 0.997488 0.070839
vn 0.000523 0.997555 0.069888
vn 0.000000 1.000000 0.000000
vn 0.000000 1.000000 0.000000
vn 0.000000 1.000000 0.000000
vn 0.000000 1.000000 0.000000
vn 0.210575 0.270362 -0.939448
vn 0.352677 0.248957 0.902020
vn 0.000000 1.000000 0.000000
vn 0.000000 1.000000 0.000000
vn -0.968915 0.247310 -0.006524
vn -0.937558 0.248726 -0.243145
vn -0.859538 0.237168 -0.452710
vn -0.209217 0.233324 -0.949625
vn -0.209217 0.233324 -0.949625
vn 0.561987 0.226364 -0.795569
vn 0.561987 0.226364 -0.795569
vn 0.968631 0.242595 -0.053869
vn 0.944227 0.255999 0.207123
vn 0.871535 0.253471 0.419738
vn -0.009953 0.263037 0.964734
vn -0.009953 0.263037 0.964734
vn -0.519383 0.250647 0.816956
vn -0.519383 0.250647 0.816956
s 1
g smallRock
usemtl initialShadingGroup
f 1/1/1 37/33/2 38/63/3 4/85/4
f 2/2/5 47/39/6 48/65/7 5/108/8
s 3
f 7/76/9 32/105/10 33/29/11 10/5/12
f 8/78/13 42/116/14 43/35/15 11/6/16
s 5
f 20/20/17 34/30/18 35/31/19 13/8/20
f 21/21/21 44/36/22 45/37/23 14/9/24
f 26/25/25 36/32/26 37/34/27 1/11/28
f 27/26/29 46/38/30 47/40/31 2/12/32
s 7
f 15/15/33 22/23/34 23/79/35 16/99/36
f 3/3/37 28/28/38 29/81/39 6/119/40
s 8
f 20/19/41 13/17/42 17/83/43 19/89/44
f 26/24/45 1/1/46 4/85/47 25/96/48
f 10/16/49 20/19/41 19/89/44 7/18/50
s 5
f 10/5/51 33/29/52 34/30/18 20/20/17
f 11/6/53 43/35/54 44/36/22 21/21/21
s 7
f 23/79/35 22/23/34 12/14/55 9/92/56
s 8
f 13/17/42 26/24/45 25/96/48 17/83/43
s 5
f 13/8/20 35/31/19 36/32/26 26/25/25
f 14/9/24 45/37/23 46/38/30 27/26/29
s 7
f 29/81/39 28/28/38 15/15/33 16/99/36
s 3
f 33/29/11 32/105/10 8/78/13 11/6/16
s 5
f 34/30/18 33/29/52 11/6/53 21/21/21
f 35/31/19 34/30/18 21/21/21 14/9/24
f 36/32/26 35/31/19 14/9/24 27/26/29
f 37/34/27 36/32/26 27/26/29 2/12/32
s 1
f 38/63/3 37/33/2 2/2/5 5/108/8
s 3
f 43/35/15 42/116/14 9/4/57 12/7/58
s 5
f 44/36/22 43/35/54 12/7/59 22/22/60
f 45/37/23 44/36/22 22/22/60 15/10/61
f 46/38/30 45/37/23 15/10/61 28/27/62
f 47/40/31 46/38/30 28/27/62 3/13/63
s 1
f 48/65/7 47/39/6 3/3/64 6/119/65
s 10
f 40/112/66 41/115/67 55/132/68 56/134/69
s 11
f 41/115/70 18/104/71 54/130/72 55/132/73
s 12
f 24/71/74 49/122/75 57/136/76 58/138/77
s 10
f 49/122/78 40/112/79 56/134/69 57/136/80
s 14
f 18/104/81 31/88/82 53/128/83 54/130/84
s 15
f 31/88/85 30/95/86 52/126/87 53/128/88
f 30/95/89 39/69/90 51/124/91 52/126/87
s 17
f 39/69/92 24/71/93 58/138/94 51/124/95
s 18
f 59/64/96 60/67/97 76/94/98 75/41/99
f 60/67/97 59/64/96 61/107/100 62/68/101
f 62/68/101 61/107/100 63/66/102 64/109/103
f 64/109/103 63/66/102 65/118/104 66/70/105
f 66/70/105 65/118/104 77/82/106 78/120/107
f 67/45/108 68/42/109 83/43/110 84/87/111
f 68/44/109 67/45/108 69/103/112 70/75/113
f 70/75/113 69/103/112 71/93/114 72/106/115
f 72/106/115 71/93/114 73/114/116 74/77/117
f 74/77/117 73/114/116 89/46/118 90/47/119
f 75/48/99 76/94/98 81/72/120 82/49/121
f 78/50/107 77/82/106 79/98/122 80/51/123
f 80/52/123 79/98/122 85/80/124 86/53/125
f 82/54/121 81/72/120 84/87/111 83/55/110
f 86/56/125 85/80/124 87/91/126 88/57/127
f 88/58/127 87/91/126 90/59/128 89/60/129
s 20
f 91/100/130 92/133/131 94/131/132 93/73/133
f 92/133/131 91/100/130 97/61/134 98/135/135
s 21
f 93/73/136 94/131/137 96/129/138 95/74/139
f 95/74/139 96/129/138 102/127/140 101/102/141
s 22
f 98/135/142 97/61/143 99/110/144 100/137/145
f 100/137/145 99/110/144 105/62/146 106/139/147
s 23
f 101/102/148 102/127/149 104/125/150 103/101/151
f 103/101/151 104/125/150 106/139/152 105/62/153
s 1
f 4/85/4 38/63/3 61/107/154 59/64/155
f 5/108/8 48/65/7 65/118/156 63/66/157
s 24
f 60/67/158 62/68/159 39/69/160 76/94/161
f 64/109/162 66/70/163 49/122/164 24/71/165
f 81/72/166 30/95/167 31/88/168 84/87/169
s 26
f 50/111/170 91/100/171 93/73/172 95/74/173
s 3
f 68/44/174 70/75/175 32/105/10 7/76/9
f 72/106/176 74/77/177 42/116/14 8/78/13
s 7
f 16/99/36 23/79/35 87/91/178 85/80/179
f 6/119/40 29/81/39 79/98/180 77/82/181
s 8
f 19/89/44 17/83/43 82/97/182 83/84/183
f 25/96/48 4/85/47 59/64/184 75/86/185
s 24
f 84/87/169 31/88/168 69/103/186 67/45/187
s 8
f 7/18/50 19/89/44 83/84/183 68/90/188
s 7
f 87/91/178 23/79/35 9/92/56 90/59/189
s 24
f 18/104/190 41/115/191 73/114/192 71/93/193
f 76/94/161 39/69/160 30/95/167 81/72/166
s 8
f 17/83/43 25/96/48 75/86/185 82/97/182
s 7
f 79/98/180 29/81/39 16/99/36 85/80/179
s 26
f 99/110/194 97/61/195 91/100/171 50/111/170
f 103/101/196 50/111/170 95/74/173 101/102/197
s 24
f 69/103/186 31/88/168 18/104/190 71/93/193
s 3
f 32/105/10 70/75/175 72/106/176 8/78/13
s 1
f 61/107/154 38/63/3 5/108/8 63/66/157
s 24
f 39/69/160 62/68/159 64/109/162 24/71/165
s 26
f 103/101/196 105/62/198 99/110/194 50/111/170
s 24
f 40/112/199 86/123/200 88/113/201 41/115/191
f 73/114/192 41/115/191 88/113/201 89/46/202
s 3
f 42/116/14 74/77/177 90/117/203 9/4/57
s 1
f 65/118/156 48/65/7 6/119/65 77/82/204
s 24
f 49/122/164 66/70/163 78/120/205 80/121/206
f 40/112/199 49/122/164 80/121/206 86/123/200
s 15
f 52/126/87 51/124/91 106/139/207 104/125/208
f 53/128/88 52/126/87 104/125/208 102/127/209
s 14
f 54/130/84 53/128/83 102/127/210 96/129/211
s 11
f 55/132/73 54/130/72 96/129/212 94/131/213
s 10
f 56/134/69 55/132/68 94/131/214 92/133/215
f 57/136/80 56/134/69 92/133/215 98/135/216
s 12
f 58/138/77 57/136/76 98/135/217 100/137/218
s 17
f 51/124/95 58/138/94 100/137/219 106/139/220
